<svg width="128" height="128" viewBox="0 0 128 128" fill="none" xmlns="http://www.w3.org/2000/svg" role="img" aria-label="JianDou logo">
  <defs>
    <linearGradient id="brand" x1="31" y1="29" x2="97" y2="99" gradientUnits="userSpaceOnUse">
      <stop stop-color="#F2D66D"/>
      <stop offset="0.45" stop-color="#43C6A7"/>
      <stop offset="1" stop-color="#2F8EAD"/>
    </linearGradient>
    <linearGradient id="gloss" x1="30" y1="32" x2="106" y2="65" gradientUnits="userSpaceOnUse">
      <stop stop-color="#FFF7C7"/>
      <stop offset="1" stop-color="#FFFFFF" stop-opacity="0.36"/>
    </linearGradient>
  </defs>
  <path d="M27 39C32.7 34 43.2 33.5 49.5 38.8" stroke="#0A171C" stroke-opacity="0.14" stroke-width="18" stroke-linecap="round"/>
  <path d="M44 37C45.2 51.2 44.7 64.5 41.5 75C37.4 88.6 27.9 95.3 18.5 90.5" stroke="#0A171C" stroke-opacity="0.14" stroke-width="18" stroke-linecap="round"/>
  <path d="M27 39C32.7 34 43.2 33.5 49.5 38.8" stroke="url(#brand)" stroke-width="14" stroke-linecap="round"/>
  <path d="M44 37C45.2 51.2 44.7 64.5 41.5 75C37.4 88.6 27.9 95.3 18.5 90.5" stroke="url(#brand)" stroke-width="14" stroke-linecap="round"/>
  <path fill-rule="evenodd" clip-rule="evenodd" d="M77 32H87C105.7 32 116 44.5 116 64C116 83.5 105.7 96 87 96H77C70.9 96 67 92.1 67 86V42C67 35.9 70.9 32 77 32ZM84 48V80H87C96.4 80 101.4 74.1 101.4 64C101.4 53.9 96.4 48 87 48H84Z" fill="#0A171C" fill-opacity="0.14"/>
  <path fill-rule="evenodd" clip-rule="evenodd" d="M77 30H87C105.7 30 116 42.5 116 62C116 81.5 105.7 94 87 94H77C70.9 94 67 90.1 67 84V40C67 33.9 70.9 30 77 30ZM84 46V78H87C96.4 78 101.4 72.1 101.4 62C101.4 51.9 96.4 46 87 46H84Z" fill="url(#brand)"/>
  <path d="M31 38.5C35.1 36.7 42 36.8 46.4 39" stroke="url(#gloss)" stroke-width="4.5" stroke-linecap="round"/>
  <path d="M77 40C79.4 36.7 84.2 35.2 89.2 35.5" stroke="url(#gloss)" stroke-width="4.5" stroke-linecap="round"/>
</svg>
