<svg width="128" height="128" viewBox="0 0 128 128" fill="none" xmlns="http://www.w3.org/2000/svg">
  <defs>
    <linearGradient id="jiandouGradient" x1="24" y1="24" x2="104" y2="104" gradientUnits="userSpaceOnUse">
      <stop stop-color="#A855F7"/>
      <stop offset="0.52" stop-color="#7B7DFF"/>
      <stop offset="1" stop-color="#38DDF8"/>
    </linearGradient>
    <linearGradient id="jiandouAccent" x1="88" y1="24" x2="100" y2="40" gradientUnits="userSpaceOnUse">
      <stop stop-color="#FFD36B"/>
      <stop offset="1" stop-color="#FF8A4C"/>
    </linearGradient>
    <mask id="jiandouPlayCutout">
      <rect width="128" height="128" fill="white"/>
      <path d="M74 47.5L87.5 56.2C92 59.1 92 65.7 87.5 68.6L74 77.3C69 80.5 62.5 76.9 62.5 71V53.8C62.5 47.9 69 44.3 74 47.5Z" fill="black"/>
    </mask>
  </defs>
  <path d="M67.7 11.5C48.6 10.6 30.5 20.7 20.9 37.2C10.4 55.2 13.3 79.2 28.2 95.4C43.1 111.4 67.5 116.6 86.6 107.2C104.6 98.3 115.1 78.1 112.6 58.2C109.8 36.4 90.1 12.5 67.7 11.5Z" fill="url(#jiandouGradient)" fill-opacity="0.18" mask="url(#jiandouPlayCutout)"/>
  <path d="M69.2 18.5C53.3 18 38.4 26.3 30.4 39.9C21.6 54.8 23.8 74.7 36.2 88.1C48.6 101.3 68.7 105.6 84.5 97.9C99.3 90.7 108 74 105.9 57.8C103.5 39.8 87.8 19 69.2 18.5Z" stroke="url(#jiandouGradient)" stroke-width="8" stroke-linecap="round" stroke-linejoin="round"/>
  <path d="M52.2 25.5C44.3 35 42.2 48.1 46 59.7C48.8 68.3 54.4 74.3 59.2 81.1C64.2 88.2 67.4 96.9 64.8 106" stroke="url(#jiandouGradient)" stroke-width="7" stroke-linecap="round"/>
  <circle cx="93.5" cy="31" r="5.5" fill="url(#jiandouAccent)"/>
</svg>
